<svg width="1200" height="780" viewBox="0 0 1200 780" fill="none" xmlns="http://www.w3.org/2000/svg" role="img" aria-labelledby="title desc">
<title id="title">Abstract party limousine interior</title>
<desc id="desc">Original illustration of a private limo lounge interior with seats, neon ceiling and glowing bar.</desc>
<style>
  .led{stroke-dasharray:18 18;animation:led 8s linear infinite}
  .spark{animation:spark 3s ease-in-out infinite alternate}
  @keyframes led{to{stroke-dashoffset:-240}}
  @keyframes spark{from{opacity:.25;transform:translateY(0)}to{opacity:1;transform:translateY(-8px)}}
</style>
<defs>
  <radialGradient id="bg" cx="0" cy="0" r="1" gradientUnits="userSpaceOnUse" gradientTransform="translate(600 170) rotate(90) scale(620 760)">
    <stop stop-color="#3B2A78"/>
    <stop offset=".42" stop-color="#0D1325"/>
    <stop offset="1" stop-color="#05070D"/>
  </radialGradient>
  <linearGradient id="seat" x1="121" y1="558" x2="1085" y2="558" gradientUnits="userSpaceOnUse">
    <stop stop-color="#161B2D"/>
    <stop offset=".5" stop-color="#252C43"/>
    <stop offset="1" stop-color="#101522"/>
  </linearGradient>
  <filter id="blur" x="-30%" y="-30%" width="160%" height="160%"><feGaussianBlur stdDeviation="30"/></filter>
</defs>
<rect width="1200" height="780" rx="42" fill="url(#bg)"/>
<circle cx="260" cy="150" r="110" fill="#FFB566" opacity=".18" filter="url(#blur)"/>
<circle cx="920" cy="210" r="150" fill="#8F80FF" opacity=".20" filter="url(#blur)"/>
<circle cx="630" cy="570" r="190" fill="#74E3FF" opacity=".08" filter="url(#blur)"/>
<path d="M108 154C250 88 398 58 600 58C802 58 950 88 1092 154V372C940 308 788 282 600 282C412 282 260 308 108 372V154Z" fill="#070A14" opacity=".72"/>
<path class="led" d="M142 178C274 118 420 92 600 92C780 92 926 118 1058 178" stroke="#FFB566" stroke-width="9" stroke-linecap="round" opacity=".9"/>
<path class="led" d="M154 230C300 188 440 170 600 170C760 170 900 188 1046 230" stroke="#8F80FF" stroke-width="7" stroke-linecap="round" opacity=".82"/>
<path d="M174 506C252 430 362 392 504 392H696C838 392 948 430 1026 506V654H174V506Z" fill="url(#seat)" stroke="rgba(255,255,255,.12)" stroke-width="2"/>
<path d="M238 532C308 476 396 450 512 450H688C804 450 892 476 962 532" stroke="#FFFFFF" stroke-opacity=".12" stroke-width="8" stroke-linecap="round"/>
<path d="M238 604H962" stroke="#000" stroke-opacity=".52" stroke-width="16" stroke-linecap="round"/>
<path d="M326 458V646M474 428V646M600 414V646M726 428V646M874 458V646" stroke="#090C14" stroke-opacity=".62" stroke-width="10"/>
<rect x="452" y="520" width="296" height="76" rx="38" fill="#0B0F19" stroke="rgba(255,255,255,.13)"/>
<rect x="486" y="548" width="228" height="18" rx="9" fill="#FFB566" opacity=".76"/>
<g class="spark">
  <circle cx="226" cy="320" r="5" fill="#FFB566"/>
  <circle cx="310" cy="274" r="4" fill="#74E3FF"/>
  <circle cx="904" cy="306" r="5" fill="#FFB566"/>
  <circle cx="980" cy="266" r="4" fill="#fff"/>
  <circle cx="596" cy="232" r="5" fill="#8F80FF"/>
</g>
<path d="M110 690H1090" stroke="#fff" stroke-opacity=".08"/>
</svg>
